<?xml version="1.0" encoding="UTF-8"?>
<svg id="Layer_1" data-name="Layer 1" xmlns="http://www.w3.org/2000/svg" width="512" height="512" xmlns:xlink="http://www.w3.org/1999/xlink" viewBox="0 0 512 512">
  <defs>
    <style>
      .cls-1 {
        fill: #fff;
      }

      .cls-2 {
        fill: #042455;
      }

      .cls-3 {
        fill: #023047;
      }

      .cls-4 {
        fill: url(#linear-gradient);
      }
    </style>
    <linearGradient id="linear-gradient" x1="99.28" y1="360.72" x2="415.6" y2="360.72" gradientUnits="userSpaceOnUse">
      <stop offset="0" stop-color="#4480a5"/>
      <stop offset=".74" stop-color="#8dc8e8"/>
      <stop offset="1" stop-color="#6faed9"/>
    </linearGradient>
  </defs>
  <rect class="cls-3" x="14.83" y="4.86" width="482.33" height="502.29" rx="96.97" ry="96.97"/>
  <g>
    <g>
      <polygon class="cls-2" points="147.15 323.13 185.19 323.13 185.19 172.08 236.32 172.08 256.77 137.43 185.19 137.43 147.15 137.43 91.17 137.43 91.17 172.08 147.15 172.08 147.15 323.13"/>
      <path class="cls-2" d="M299.28,172.07h52.73c11.61,2.69,20.26,13.11,20.26,25.53,0,14.48-11.74,26.22-26.22,26.22h-55.82c-18.48,0-33.45,14.98-33.45,33.45h0v65.29h38.04v-65.29h35.45l45.02,65.3h42.14l-47.49-68.88-.98-1.41c.33-.09.65-.19.98-.3,23.96-7.33,41.38-29.63,41.38-55.99,0-9.87-2.44-19.18-6.76-27.34-9.82-18.58-29.33-31.24-51.8-31.24h-77.17l-20.45,34.64h44.15Z"/>
      <rect class="cls-2" x="91.17" y="349.52" width="326.25" height="27.71" rx="13.85" ry="13.85"/>
    </g>
    <g>
      <polygon class="cls-1" points="150.56 320.47 188.6 320.47 188.6 169.42 239.73 169.42 260.18 134.77 188.6 134.77 150.56 134.77 94.58 134.77 94.58 169.42 150.56 169.42 150.56 320.47"/>
      <path class="cls-1" d="M302.68,169.41h52.73c11.61,2.69,20.26,13.11,20.26,25.53,0,14.48-11.74,26.22-26.22,26.22h-55.82c-18.48,0-33.45,14.98-33.45,33.45h0v65.29h38.04v-65.29h35.45l45.02,65.3h42.14l-47.49-68.88-.98-1.41c.33-.09.65-.19.98-.3,23.96-7.33,41.38-29.63,41.38-55.99,0-9.87-2.44-19.18-6.76-27.34-9.82-18.58-29.33-31.24-51.8-31.24h-76.04l-20.45,34.64h43.02Z"/>
      <rect class="cls-4" x="94.58" y="346.86" width="326.25" height="27.71" rx="13.85" ry="13.85"/>
    </g>
  </g>
</svg>