<?xml version="1.0" encoding="utf-8"?>
<!DOCTYPE svg PUBLIC "-//W3C//DTD SVG 1.0//EN" "http://www.w3.org/TR/2001/REC-SVG-20010904/DTD/svg10.dtd">
<svg version="1.0" xmlns="http://www.w3.org/2000/svg" width="32" height="32" viewBox="0 0 1024 1024" preserveAspectRatio="xMidYMid meet">
 <g fill="#0a57a3">
  <path d="M272 898.3 c-46 -4.5 -88.1 -28.8 -116.6 -67.1 -12.4 -16.8 -23.6 -42.5 -28.1 -64.7 -1.7 -8.5 -1.8 -22.1 -2.1 -245.5 -0.2 -166.4 0 -240.1 0.8 -248.7 3.2 -35.9 18.2 -69.1 43.1 -95.8 10.8 -11.5 31.5 -27.5 35.7 -27.5 1 0 2.7 -1 3.8 -2.1 4.2 -4.7 26.5 -13.6 44.9 -17.9 8.9 -2.1 10.8 -2.2 171.5 -3.1 89.4 -0.5 200.5 -0.8 247 -0.7 83.4 0.3 84.6 0.4 95.3 2.6 33.4 7 61.7 22.3 84.4 45.4 23.5 23.9 36.6 48.6 44.5 83.8 l2.3 10.5 0.3 239 c0.2 169.2 0 241.9 -0.8 249 -3.3 30.3 -15.1 58.2 -34.7 82.5 -7.5 9.2 -27.6 29 -29.6 29 -0.8 0 -4.4 2.6 -8 5.8 -6 5.2 -11.3 8.3 -25.2 14.7 -8.3 3.8 -17.9 7.5 -19.6 7.5 -0.9 0 -1.9 0.3 -2.3 0.7 -2.9 3 -16.8 3.1 -258.6 3.1 -134.5 -0.1 -246.1 -0.3 -248 -0.5z m129 -373.3 l0 -118 39.8 -0.2 39.7 -0.3 13.7 -22.7 13.7 -22.8 -122 0 c-82.2 0 -122.7 0.3 -124 1 -1.8 1 -1.9 2.3 -1.9 23 l0 22 43.5 0 43.5 0 0 118 0 118 27 0 27 0 0 -118z m171.5 112.3 c0.4 -3.2 0.5 -25.7 0.4 -50.1 -0.4 -38.5 -0.2 -44.4 1.1 -45.2 0.9 -0.6 13.7 -1 29.7 -1 l28.2 0 24.9 36.3 c13.7 19.9 29.4 42.7 34.8 50.7 l9.9 14.5 28.8 0.3 28.8 0.2 -4.2 -6.2 c-2.4 -3.5 -10.9 -15.7 -18.9 -27.3 -50.4 -72.2 -47.1 -67.3 -46.8 -71.7 l0.3 -4.1 10 -5.1 c12.8 -6.6 22.1 -13.2 28.6 -20.4 21.4 -23.9 28.9 -52.2 21.4 -81.3 -9.3 -35.7 -39.3 -59.5 -81.8 -64.9 -4.6 -0.6 -31.4 -1 -62.2 -1 l-54.2 0 -2.4 2.6 c-1.3 1.4 -7.8 11.6 -14.4 22.7 l-12.1 20.2 72.6 0.5 c72.2 0.5 72.5 0.5 78 2.7 15.7 6.5 23.1 15.8 25.2 31.8 1.3 10.6 0 22.2 -3.4 29.6 -3.3 7.1 -10.5 15 -16.5 18 -2.6 1.3 -6.1 3.3 -7.8 4.4 -2.9 1.9 -5.2 2 -51 2.6 -40.4 0.5 -49.1 0.8 -55 2.3 -3.8 0.9 -8.3 2 -9.9 2.3 -8.9 1.9 -24.6 16.6 -29.7 27.9 -5.6 12.3 -5.9 15.4 -5.9 67.2 l0 47.2 26.4 0 26.4 0 0.7 -5.7z"/>
 </g>
 
 <g fill="#ddeef9">
  <path d="M480 901.4 c0 -1.4 -1.6 -1.6 -12.5 -1.3 -9.5 0.3 -12.5 0.1 -12.5 -0.8 0 -1 -3.5 -1.3 -14 -1.3 -11.2 0 -14 0.3 -14 1.4 0 1.1 -3 1.4 -14.5 1.5 -12.5 0.2 -14.5 0 -14.5 -1.4 0 -1.3 -2 -1.5 -14 -1.5 -10.5 0 -14 0.3 -14 1.3 0 0.9 -3.6 1.2 -14.5 1.3 -11.3 0 -14.5 -0.3 -14.5 -1.3 0 -1 -3.2 -1.3 -14 -1.3 -13.3 0 -14 0.1 -14 2 0 1.3 -0.7 2 -2 2 -1.1 0 -2 -0.5 -2 -1.1 0 -0.8 -3.7 -1 -12 -0.8 -9.1 0.3 -12 0.1 -12 -0.8 0 -0.7 -1 -1.3 -2.2 -1.4 -10.3 -0.2 -25.3 -1.9 -28.9 -3.2 -2.4 -0.9 -9.1 -3 -14.8 -4.8 -9.6 -3 -10.5 -3.1 -11.6 -1.6 -1.5 2.1 -2.5 2.2 -2.5 0.3 0 -1.5 -4.9 -3.6 -8.6 -3.6 -1.3 0 -2.4 -0.4 -2.4 -0.9 0 -0.5 -0.8 -1.2 -1.7 -1.4 -1 -0.3 -0.3 -0.5 1.5 -0.6 1.7 0 3.2 -0.5 3.2 -1.1 0 -0.5 -0.4 -1 -1 -1 -0.5 0 -4.3 -2 -8.3 -4.5 -4.1 -2.5 -7.7 -4.5 -8 -4.5 -0.3 0 -0.7 1 -0.9 2.2 -0.3 2.3 -0.3 2.3 -2.8 -0.4 -2.1 -2.2 -13.6 -11.5 -22.2 -18 l-2.3 -1.7 2.9 -0.1 2.9 0 -2.3 -2.5 c-2.8 -3 -5 -3.3 -4.3 -0.6 0.4 1.6 0.1 1.9 -1.6 1.4 -1.2 -0.3 -2.1 -1.3 -2.1 -2.3 0 -1 -1.4 -2.8 -3 -4 -2.6 -1.8 -3 -2.8 -3 -6.6 0 -2.4 0.3 -4.4 0.8 -4.4 0.4 0 4.1 3.7 8.2 8.2 23.5 25.6 53.4 43 87.3 50.5 l12.2 2.7 246.5 0.6 c135.6 0.3 242 0.8 236.5 1.2 -5.5 0.5 -17.1 0.8 -25.7 0.8 -12 0 -15.8 0.3 -15.8 1.3 0 0.9 -3 1.1 -12.5 0.8 -8.7 -0.2 -12.5 0 -12.5 0.8 0 0.6 -0.8 1.1 -1.9 1.1 -1.2 0 -1.8 -0.7 -1.7 -1.7 0.1 -1.6 -1.2 -1.8 -13.8 -2 -13.1 -0.2 -13.8 -0.1 -14.3 1.8 -0.4 1.5 -1.1 1.9 -2.7 1.5 -1.1 -0.3 -7.4 -0.6 -13.8 -0.6 -9.8 0 -11.8 -0.3 -11.8 -1.5 0 -1.3 -2.3 -1.5 -14.5 -1.5 -11.6 0 -14.5 0.3 -14.5 1.4 0 1 -2.9 1.4 -14 1.5 -12 0.2 -14 0 -14 -1.4 0 -1.3 -2 -1.5 -14 -1.5 -10.5 0 -14 0.3 -14 1.3 0 0.9 -3.6 1.2 -14.5 1.2 -10.9 0 -14.5 -0.3 -14.5 -1.2 0 -1.5 -3.7 -1.6 -18.4 -0.6 -8.4 0.5 -9.9 0.9 -10.4 2.5 -0.5 2.2 -3.2 2.4 -3.2 0.2z"/>
  <path d="M124.6 754.8 c-1.6 -13 -1.6 -14.8 0.1 -14.8 1.4 0 1.5 -1 1 -6.7 -0.4 -3.8 -0.7 -10.3 -0.7 -14.5 0 -6.3 -0.3 -7.8 -1.5 -7.8 -0.8 0 -1.5 -0.7 -1.5 -1.5 0 -0.8 0.5 -1.5 1.1 -1.5 0.8 0 1 -3.8 0.8 -12.5 -0.3 -9.5 -0.1 -12.5 0.9 -12.5 0.9 0 1.2 -3.6 1.2 -14.5 0 -10.9 -0.3 -14.5 -1.2 -14.5 -1 0 -1.3 -3.5 -1.3 -14 0 -10.5 0.3 -14 1.3 -14 0.9 0 1.2 -3.5 1.2 -14.1 0 -13.4 -0.1 -14.1 -2.1 -14.6 -1.5 -0.4 -1.9 -1.1 -1.5 -2.7 0.3 -1.1 0.6 -7.4 0.6 -13.8 0 -9.8 0.3 -11.8 1.5 -11.8 1.3 0 1.5 -2.3 1.5 -14.5 0 -12.4 -0.2 -14.5 -1.6 -14.5 -1.3 0 -1.5 -1.9 -1.2 -14 0.2 -10.4 0.6 -14 1.6 -14 1.7 0 1.7 -27.9 -0.1 -28.5 -1.7 -0.7 -1.7 -28.5 0.1 -28.5 0.9 0 1.2 -3.5 1.2 -14 0 -11.8 -0.2 -14 -1.5 -14 -1.3 0 -1.5 -2.3 -1.5 -14.5 0 -12.2 0.2 -14.5 1.5 -14.5 1.3 0 1.5 -2.2 1.5 -14 0 -11.8 -0.2 -14 -1.5 -14 -1.3 0 -1.5 -2.3 -1.5 -14.5 0 -12.2 0.2 -14.5 1.5 -14.5 1.3 0 1.5 -2.2 1.5 -14 0 -10.5 -0.3 -14 -1.2 -14 -1 0 -1.2 -2.9 -0.9 -12.1 0.2 -8 -0.1 -12.5 -0.8 -13.2 -1.7 -1.7 -1.3 -2.7 0.9 -2.7 1.1 0 1.8 -0.5 1.5 -1.2 -0.2 -0.7 -0.1 -4.4 0.3 -8.3 0.5 -5.1 1.1 -7.1 2.3 -7.3 1.3 -0.2 1.4 0.8 0.7 8.3 -1.1 11.3 -0.5 478.5 0.6 480.8 0.7 1.4 0.4 1.7 -1.7 1.7 -2.3 0 -2.6 -0.5 -3.1 -4.2z"/>
  <path d="M895.8 515 l0.2 -234 3 0 c2.3 0 3 0.4 3 2 0 1.3 -0.7 2 -2 2 -1.9 0 -2 0.7 -2 14 l0 14 2.5 0 c1.8 0 2.5 0.5 2.5 2 0 1.1 -0.4 2 -1 2 -0.6 0 -1 4.8 -1 12.5 0 10.2 -0.3 12.5 -1.4 12.5 -1.2 0 -1.6 2.6 -1.8 14 -0.3 11.9 -0.1 14 1.2 14 1.3 0 1.5 2.3 1.5 14.5 0 10.9 -0.3 14.5 -1.2 14.5 -1 0 -1.3 3.4 -1.3 13.6 0 12.7 0.1 13.6 2 14.1 2.1 0.6 2.8 3.3 0.9 3.3 -0.8 0 -1 3.8 -0.8 12.5 0.3 9.5 0.1 12.5 -0.8 12.5 -1 0 -1.3 3.5 -1.3 14 0 11.8 0.2 14 1.5 14 1.3 0 1.5 2.3 1.5 14.5 0 12.2 -0.2 14.5 -1.5 14.5 -1.3 0 -1.5 2.2 -1.5 14 0 13.3 0.1 14 2 14 1.3 0 2 0.7 2 2 0 1.1 -0.3 2 -0.7 2 -0.5 0 -0.8 5.6 -0.8 12.5 0 9.3 -0.3 12.5 -1.2 12.5 -1 0 -1.3 3.5 -1.3 14 0 10.5 0.3 14 1.3 14 0.9 0 1.2 3.6 1.2 14.5 0 10.9 -0.3 14.5 -1.2 14.5 -1 0 -1.3 3.5 -1.2 14.3 0 11.6 0.2 13.8 1.2 11.7 1.4 -3 1.5 -0.9 1.9 34.7 0.3 22.3 0.2 24.2 -1.4 24.7 -1.6 0.4 -1.8 1.9 -1.8 14.5 0 12.3 0.2 14.1 1.6 14.1 1.2 0 1.5 0.6 1 2.3 -0.3 1.2 -0.6 3.2 -0.6 4.5 0 1.6 -0.6 2.2 -2.2 2.2 l-2.3 0 0.3 -234z"/>
  <path d="M344 528 l0 -118 -43.5 0 -43.5 0 0 -25 c0 -23.8 0.1 -25 2 -26 1.9 -1 2 -0.6 2.2 22.7 l0.3 23.8 42.6 0.3 42.7 0.2 0.6 2.3 c0.3 1.2 0.6 54.3 0.6 118 0 76.4 0.3 115.7 1 115.7 0.6 0 1 0.9 1 2 0 1.6 -0.7 2 -3 2 l-3 0 0 -118z"/>
  <path d="M399 527 l0 -119 4 0 c2.2 0 4 0.5 4 1 0 0.6 -0.7 1 -1.5 1 -1.3 0 -1.5 13.8 -1.5 118 l0 118 -2.5 0 -2.5 0 0 -119z"/>
  <path d="M516 599 c0 -46.3 0 -47 2 -47 2 0 2 0.7 2 45 l0 45 3 0 c2.3 0 3 0.4 3 2 0 1.7 -0.7 2 -5 2 l-5 0 0 -47z"/>
  <path d="M757 640.5 c0 -3 0.4 -5.5 0.8 -5.5 0.8 0 5.4 6 7.6 9.8 0.5 0.9 -0.5 1.2 -3.8 1.2 l-4.6 0 0 -5.5z"/>
  <path d="M571.6 635.3 c-0.3 -4.2 -0.6 -26.7 -0.6 -50 l0 -42.3 3.5 0 c3.3 0 4.8 1.4 2.5 2.2 -0.8 0.2 -1.1 15.9 -1.1 49.1 0.1 46.7 0 48.7 -1.8 48.7 -1.5 0 -1.9 -1.1 -2.5 -7.7z"/>
  <path d="M640.6 561 c-10.8 -15.7 -12 -17 -14.7 -17 -2.6 0 -3 -0.3 -2.7 -2.2 0.3 -2 0.9 -2.3 5.3 -2.3 4.8 0 5 0.1 7 4.1 1.1 2.2 3.2 5.6 4.7 7.6 6.1 7.7 13.8 21.1 13.8 23.9 0 1.6 -0.4 2.9 -0.9 2.9 -0.5 0 -6.1 -7.6 -12.5 -17z"/>
  <path d="M738.3 403.1 c-1 -1.5 -4.9 -6.3 -8.7 -10.5 -10.3 -11.3 -20.7 -18.3 -31.1 -20.6 -6.7 -1.5 -9.5 -3.4 -9.5 -6.6 0 -2.3 0.3 -2.5 2.8 -1.9 6.3 1.5 19.6 7.6 26 11.9 8.8 5.8 19.6 16.7 24.5 24.5 l3.7 6.1 -2.9 0 c-2.1 0 -3.4 -0.8 -4.8 -2.9z"/>
  <path d="M532.7 381.3 c2.5 -4.3 5.3 -9 6.2 -10.5 2.4 -4.2 4.1 -3.5 4.1 1.7 0 3.5 -0.6 5.1 -2.3 6.8 -1.3 1.2 -3.3 3.9 -4.6 6 -1.8 2.9 -2.9 3.7 -5.1 3.7 l-2.9 0 4.6 -7.7z"/>
 </g>
 
 <g fill="#fefffe">
  <path d="M29 1010.1 l0 -13.9 2.8 -0.5 c1.5 -0.3 6.1 -0.4 10.2 -0.3 4.1 0.2 9.2 0.4 11.3 0.5 l3.7 0.1 0 14 0 14 -14 0 -14 0 0 -13.9z"/>
  <path d="M85.5 1009.8 l0.2 -14.3 11.9 -0.2 c18 -0.3 16.4 -1.8 16.4 14.7 l0 14 -14.4 0 -14.3 0 0.2 -14.2z"/>
  <path d="M143 1010 l0 -14 2.8 -0.1 c14.7 -0.5 24.2 -0.3 24.3 0.6 0.8 11.3 0.9 18 0.4 22.3 l-0.6 5.2 -13.5 0 -13.4 0 0 -14z"/>
  <path d="M199 1010.1 l0 -14 13 -0.3 c7.2 -0.2 13.5 -0.1 14 0 0.6 0.2 1 6.1 1 14.3 l0 13.9 -14 0 -14 0 0 -13.9z"/>
  <path d="M285 1009.5 l0 -14.4 13.8 0.3 13.7 0.4 0.3 14.1 0.3 14.1 -14.1 0 -14 0 0 -14.5z"/>
  <path d="M341.1 1010.1 c0 -16.4 -1.5 -15 16.2 -15 l11.7 0 0.1 4.2 c0 2.3 0.1 8.8 0.2 14.5 l0.2 10.2 -14.2 0 -14.3 0 0.1 -13.9z"/>
  <path d="M398.2 1009.8 l0.3 -14.1 14 0 14 0 0.3 14.1 0.2 14.2 -14.5 0 -14.6 0 0.3 -14.2z"/>
  <path d="M455 1010.1 c0 -12.4 0.2 -13.9 1.8 -14.3 1.6 -0.3 13.2 -0.3 22 0 l4.2 0.2 0 14 0 14 -14 0 -14 0 0 -13.9z"/>
  <path d="M512 1009.5 l0 -14.5 -14 0 c-12.6 0 -14 -0.2 -14.1 -1.7 0 -1.7 0 -13.4 0.1 -22.5 l0 -3.8 14 0 14 0 0 -14 0 -14 -14 0 -14 0 -0.1 -6.2 c-0.1 -3.5 -0.1 -9.2 0 -12.8 0.1 -10.6 1 -10 -15 -10 l-13.9 0 0 -6.5 0 -6.5 14 0 14 0 0 6.5 0 6.5 14.5 0 14.5 0 0 -6.5 0 -6.5 14 0 14 0 0 6.5 0 6.5 -14 0 -14 0 0 14.5 0 14.5 14 0 14 0 0 13.4 0 13.3 -5.2 0.7 c-2.9 0.3 -9.2 0.6 -14 0.6 l-8.8 0 0 14 0 14.1 14.3 -0.3 14.2 -0.3 0.1 -9 c0.1 -4.9 0.2 -11.1 0.3 -13.7 l0.1 -4.8 14 0 14 0 0 -13.9 0 -13.8 -14 -0.8 -14 -0.7 0 -13.4 0 -13.4 10.9 0 c6 0 12.3 -0.3 14 -0.6 3 -0.6 3.1 -0.7 3.1 -6.5 l0 -5.9 7.9 0 c4.3 0 10.6 -0.3 14 -0.6 l6.1 -0.7 0 6.7 0 6.6 14.5 0 14.5 0 0 -6 0 -6 14 0 14 0 0 6 0 6 -14 0 -13.9 0 -0.3 14.3 -0.3 14.2 -14.2 0.3 -14.3 0.3 0 13.9 0 14 14.5 0 14.5 0 0 -14 0 -14 14 0 14 0 0 14 0 14 14.5 0 14.5 0 0 -14 0 -14 14 0 14 0 0 -14.5 0 -14.5 -13.9 0 -13.8 0 -0.5 13.6 c-0.3 10.2 -0.8 13.8 -1.9 14.5 -1.7 1 -7.8 1.1 -18.2 0.3 l-7.7 -0.7 0 -13.2 0 -13.2 6.8 -0.6 c3.7 -0.4 10 -0.7 14 -0.7 l7.3 0 -0.2 -4.2 c-0.5 -9.6 -1.7 -8.8 14.1 -8.8 l14 0 0 6.5 0 6.5 14.4 0 14.5 0 -0.2 14.3 -0.2 14.2 -14.3 0.3 -14.2 0.3 0 13.9 0 14 -14 0 -13.9 0 -0.3 14.3 -0.3 14.2 -14.3 0.3 -14.4 0.3 0.4 13.9 0.3 14 -14.2 0 -14.3 0 0 -14.5 0 -14.5 -14.5 0 -14.5 0 0 -14 0 -14 -14 0 -14 0 0 14 0 14 2.8 0 c1.5 0 7.7 0.2 13.7 0.3 l11 0.2 0.3 14.3 0.3 14.2 -14.1 0 -14 0 0 -14.5 0 -14.5 -14.5 0 -14.5 0 0 14.5 0 14.5 -14 0 -14 0 0 -14.5z m142 -28.5 l0 -14 -14 0 -14 0 0 14 0 14 14 0 14 0 0 -14z m-57 -56.5 l0 -14.5 -14 0 -14 0 0 14.5 0 14.5 14 0 14 0 0 -14.5z"/>
  <path d="M711 1010.1 c0 -15.4 -0.1 -15.2 6.5 -14.7 1.7 0.2 7.2 0.4 12.3 0.4 l9.2 0.2 0 14 0 14 -14 0 -14 0 0 -13.9z"/>
  <path d="M768 1010 l0 -14 14 0 14 0 0 14 0 14 -14 0 -14 0 0 -14z"/>
  <path d="M825 1010 l0 -14 14 0 14 0 0 14 0 14 -14 0 -14 0 0 -14z"/>
  <path d="M911 1010 l0 -14 13.5 0 13.5 0 0 14 0 14 -13.5 0 -13.5 0 0 -14z"/>
  <path d="M967 1010 l0 -14 14 0 14 0 0 14 0 14 -14 0 -14 0 0 -14z"/>
  <path d="M0 981 l0 -14.1 14.2 0.3 14.2 0.3 0 13.7 0.1 13.8 -14.2 0 -14.3 0 0 -14z"/>
  <path d="M57 981 l0 -14 -14 0 -14 0 0 -14 0 -14 14 0 14 0 0 14 0 14 14 0 14 0 0 14 0 14 -14 0 -14 0 0 -14z"/>
  <path d="M114 981 l0 -14 -13.9 0 -13.9 0 -0.6 -3.7 c-0.7 -4.8 -0.7 -17.9 0 -21.5 l0.6 -2.8 13.9 0 13.9 0 0 14 0 14 14 0 14 0 0 14 0 14 -14 0 -14 0 0 -14z"/>
  <path d="M171 981 l0 -14 14 0 14 0 0 -14 0 -14 14 0 14 0 0 14 0 14 -14 0 -14 0 0 14 0 14 -14 0 -14 0 0 -14z"/>
  <path d="M228 981 l0 -14 28.5 0 28.5 0 0 -14 0 -14 14 0 14 0 0 -14.5 0 -14.5 -14 0 -14 0 0 -6.5 0 -6.5 14 0 c7.7 0 13.9 0.3 13.9 0.8 -0.1 0.4 -0.1 3.3 0 6.5 l0.1 5.7 14 0 14.1 0 -0.3 14.3 c-0.3 11.8 -0.6 14.2 -1.8 14.3 -0.8 0.1 -7 0.2 -13.7 0.3 l-12.2 0.1 -0.3 13.8 -0.3 13.7 -13.6 0.3 -13.6 0.3 -0.7 3.7 c-0.3 2 -0.6 8.3 -0.6 14 l0 10.2 -28 0 -28 0 0 -14z"/>
  <path d="M313 981 l0 -14 14 0 14 0 0 14 0 14 -14 0 -14 0 0 -14z"/>
  <path d="M370 981 l0 -13.9 -14.2 -0.3 -14.3 -0.3 -0.3 -13.7 -0.3 -13.8 13.9 0 c16.5 0 15.2 -1.4 15.2 16.3 l0 11.7 14 0 14 0 0 -14 0 -14 -10.9 0 c-6 0 -12.3 -0.3 -14 -0.6 l-3.2 -0.7 0.3 -13.6 0.3 -13.6 13.8 -0.3 13.7 -0.3 0 -5.9 0 -6 8.4 0 c4.5 0 11.1 -0.3 14.5 -0.6 l6.1 -0.7 0 6.6 0 6.6 13.8 0.3 13.7 0.3 0 14 0 14 -13.7 0.3 -13.8 0.3 -0.1 6.7 c0 3.7 -0.1 9.9 -0.2 13.7 l-0.2 7 -14.2 0.3 -14.3 0.3 0 13.9 0 14 -14 0 -14 0 0 -14z m56.8 -56.8 l0.3 -14.3 -14.3 0.3 -14.3 0.3 -0.2 13 c-0.1 7.2 -0.1 13.5 0.1 14 0.2 0.7 5.4 1.1 14.2 1 l13.9 0 0.3 -14.3z"/>
  <path d="M427 981 l0 -14 14 0 14 0 0 -14 0 -14 14 0 14 0 0 14 0 14 -14 0 -14 0 0 14 0 14 -14 0 -14 0 0 -14z"/>
  <path d="M739.8 988.3 c-0.5 -7.2 -0.1 -9.6 1.3 -8.7 0.5 0.3 0.9 0 0.9 -0.5 0 -0.6 -0.4 -1.1 -1 -1.1 -0.6 0 -1 -2.6 -1 -5.7 0 -4.1 0.3 -5.4 1 -4.3 0.7 1.1 1 1.1 1 0.2 0 -0.7 0.5 -1 1.2 -0.6 0.6 0.4 2.8 0.6 5 0.6 2.4 -0.1 3.8 0.3 3.8 1.1 0.1 0.8 0.4 0.7 1.3 -0.3 0.9 -1.2 2.6 -1.4 7.7 -0.9 3.6 0.3 5.7 0.6 4.6 0.7 -1.2 0.1 -1.6 0.7 -1.2 1.8 0.3 0.9 0.3 2.1 -0.1 2.7 -0.4 0.6 -0.7 3.1 -0.8 5.5 0 2.6 -0.6 4.7 -1.5 5.2 -1.1 0.7 -0.7 1 1.5 1 2.9 0 3 0.2 3.3 5 l0.3 5 -13.5 0 -13.4 0 -0.4 -6.7z"/>
  <path d="M797 981 l0 -14 8.9 0 c4.8 0 10.9 0.3 13.5 0.6 l4.6 0.7 0 13.3 0 13.4 -13.5 0 -13.5 0 0 -14z"/>
  <path d="M854 981 l0 -14 28 0 28 0 0 -12.7 c0 -7.1 0.4 -13.3 0.8 -14 0.5 -0.9 5 -1.3 14.2 -1.5 l13.5 -0.3 0.3 -14.2 0.3 -14.3 -14.6 0 -14.5 0 0 14 0 14 -28 0 -27.9 0 0 -13.5 0 -13.5 9.2 -0.2 c5.1 -0.1 17.1 -0.3 26.7 -0.4 9.6 -0.1 18.1 -0.3 18.8 -0.3 0.9 -0.1 1.2 -3.6 1.2 -14.1 l0 -14 -14 0 -14.1 0 0.3 -14.2 0.3 -14.3 13.8 -0.3 13.7 -0.3 0 -13.9 0 -14 -14 0 -14 0 0 -8 c0 -4.4 -0.4 -8 -0.9 -8 -1.2 0 -4.8 4.8 -8.5 11.3 l-2.7 4.7 5.6 0 5.5 0 -0.1 8.3 c-0.1 4.5 -0.6 8.8 -1.1 9.5 -0.7 0.8 -0.7 1.2 0.1 1.2 0.6 0 1.1 1.8 1.1 4.5 l0 4.4 -13.7 0.3 -13.8 0.3 -0.3 14.3 -0.3 14.2 -13.8 0 -13.8 0 -0.7 3.1 c-0.3 1.7 -0.6 8 -0.6 14 0 6.9 -0.4 10.9 -1 10.9 -0.7 0 -0.7 0.6 0 1.9 0.5 1.1 1 7.4 1 14 l0 12 -11 0 c-6.9 0 -10.8 -0.3 -10.5 -0.9 0.3 -0.6 -0.1 -1 -1 -1 -0.9 0 -1.3 0.5 -1 1 0.3 0.6 -0.2 1 -1.1 1 -1.4 0 -1.5 -0.3 -0.6 -1.2 1.7 -1.7 1.5 -3.8 -0.3 -3.8 -1.2 0 -1.5 -1.5 -1.5 -7.2 0 -4 -0.3 -14.8 -0.7 -24 l-0.6 -16.6 3.3 -1.7 c2.5 -1.3 6.1 -1.8 14.4 -1.9 l11.1 -0.1 0.3 -4.9 0.3 -4.8 -2.8 0.6 -2.8 0.7 3.4 -3.5 c1.9 -1.9 5 -4.3 7 -5.2 4.4 -2.1 22.1 -19.2 30.4 -29.4 7.8 -9.7 13.3 -18.3 19.1 -29.6 l4.6 -9.2 8.2 0.3 c4.6 0.2 10.4 0.4 13.1 0.4 l4.7 0.1 0 14 0 14 13.9 0 c12.4 0 14 0.2 14.5 1.8 0.3 0.9 0.3 6.4 0.1 12.2 -0.2 5.8 -0.5 11.3 -0.5 12.3 0 1.5 -1.3 1.7 -14 1.7 l-14 0 0 14.5 0 14.5 14.6 0 14.5 0 -0.1 -11.7 c-0.1 -6.5 -0.1 -13 -0.1 -14.5 l0.1 -2.8 14 0 14 0 0 -14 0 -14 14 0 14 0 0 14 0 14 -14 0 -14 0 0 14.5 0 14.5 14 0 14 0 0 14 0 14 -14 0 -14 0 0 14.5 0 14.5 14 0 14 0 0 14 0 14 -14 0 -14 0 0 -14 0 -14 -14 0 c-13.8 0 -14 0 -14.1 2.3 -0.1 1.2 -0.4 7.4 -0.8 13.7 l-0.6 11.5 -13.7 0.3 -13.8 0.3 0 13.9 0 14 -28 0 -28 0 0 -14z m113 -85 l0 -14 -14 0 -14 0 -0.1 6 c-0.1 3.3 -0.1 6.9 -0.1 8 0 1.1 0 4.7 0.1 8 l0.1 6 14 0 14 0 0 -14z m-114 -45.5 c0 -3.1 -1.1 -3.2 -4.7 0 l-2.8 2.4 3.8 0.1 c3.3 0 3.7 -0.3 3.7 -2.5z"/>
  <path d="M939 981 l0 -14 13.5 0 13.5 0 0 14 0 14 -13.5 0 -13.5 0 0 -14z"/>
  <path d="M996 981 l0 -14 14 0 14 0 0 14 0 14 -14 0 -14 0 0 -14z"/>
  <path d="M142.8 953.3 l-0.3 -13.8 -12 -0.2 c-18.2 -0.4 -16.5 1.1 -16.5 -15.3 l0 -13.9 -14.2 -0.3 -14.3 -0.3 -0.2 -8 c-0.1 -4.4 -0.2 -10.6 -0.2 -13.7 l-0.1 -5.7 -13.7 -0.3 -13.8 -0.3 0 -14 0 -14 13.8 -0.3 13.7 -0.3 0 14.6 0 14.5 14.5 0 14.5 0 0 -14.5 0 -14.5 -13.9 0 c-12.4 0 -13.9 -0.2 -14.3 -1.7 -0.2 -1 -0.4 -7.2 -0.3 -13.8 l0 -12 14.3 -0.3 14.2 -0.3 0 -13.9 0 -14 12 -0.1 c6.6 -0.1 12.5 -0.2 13.1 -0.3 0.5 -0.1 3.6 5 6.9 11.2 3.2 6.1 5.4 11.2 4.9 11.2 -0.5 0 -0.9 -0.4 -0.9 -0.9 0 -2.1 -4.6 -8 -6.2 -8.1 -1.6 0 -1.8 1 -1.8 7.5 l0 7.5 -14 0 -14 0 0 14 0 14 14 0 14 0 0 14.5 0 14.5 13.9 0 13.8 0 0.7 3.8 c0.3 2 0.6 8.3 0.6 14 l0 10.2 14 0 14 0 0 -14 0 -13.9 -13.7 -0.3 -13.8 -0.3 -0.3 -14.2 -0.3 -14.3 3.9 0 c3.4 0 5.3 1.1 14.1 8.1 l10.1 8.1 0 6.4 0 6.4 11.4 0 c6.2 0 12.8 0.5 14.5 1.1 3 1.1 3.2 1.5 2.7 4.2 -0.3 1.6 -0.6 7.4 -0.6 12.8 l0 9.9 -14 0 -13.9 0 -0.3 14.3 -0.3 14.2 -13.7 0.3 -13.8 0.3 -0.2 3.2 c-0.1 1.8 -0.2 3.9 -0.4 4.7 -0.1 0.8 -0.2 5.7 -0.3 10.8 l-0.1 9.2 -13.5 0 -13.4 0 -0.3 -13.7z m27.4 -18.6 c0.2 -2.3 0.4 -8.7 0.4 -14.2 l-0.1 -10 -13.7 -0.3 c-12.6 -0.2 -13.8 -0.1 -13.9 1.5 0 1 -0.2 3.6 -0.3 5.8 -0.2 2.2 -0.1 7.9 0.2 12.7 l0.5 8.7 13.2 0 13.3 -0.1 0.4 -4.1z m-28.2 -38.7 l0 -14 -14 0 -14 0 0 14 0 14 14 0 14 0 0 -14z"/>
  <path d="M769.1 956.3 c0 -5.9 -0.3 -12.3 -0.5 -14 l-0.4 -3.3 13.9 0 14 0 -0.3 13.8 -0.3 13.7 -13.1 0.3 -13.1 0.3 -0.2 -10.8z"/>
  <path d="M825 953 l0 -14 14 0 14 0 0 14 0 14 -14 0 -14 0 0 -14z"/>
  <path d="M1.8 938.3 c-1.6 -0.4 -1.8 -2 -1.8 -14.4 l0 -13.9 14 0 14 0 0 14.4 0 14.4 -12.2 0 c-6.8 0 -13.1 -0.2 -14 -0.5z"/>
  <path d="M57.4 937.7 c-0.2 -0.7 -0.3 -7.1 -0.2 -14.3 l0.3 -12.9 13.8 -0.2 13.7 -0.2 0 14.3 0 14.4 -13.5 0.1 c-10.4 0.1 -13.7 -0.2 -14.1 -1.2z"/>
  <path d="M228 924.5 l0 -14.5 14 0 14.1 0 -0.3 14.3 -0.3 14.2 -13.7 0.3 -13.8 0.3 0 -14.6z"/>
  <path d="M996.1 924.5 l-0.1 -13.5 14 0 14 0 0 13.5 0 13.5 -13.9 0 -14 0 0 -13.5z"/>
  <path d="M28.8 896.3 l-0.3 -13.8 -14.2 -0.3 -14.3 -0.3 0 -14.4 0 -14.5 14 0 14 0 0.1 6.3 c0 3.4 0 9.9 0.1 14.5 l0.1 8.2 14.3 0 14.4 0 0 14 0 14 -14 0 -13.9 0 -0.3 -13.7z"/>
  <path d="M341.6 908.4 c-0.3 -0.8 -0.6 -3.5 -0.6 -5.9 0 -4 0.2 -4.3 3.1 -4.9 1.7 -0.3 8.3 -0.6 14.6 -0.6 l11.4 0 -0.3 6.3 -0.3 6.2 -13.6 0.3 c-11.8 0.2 -13.7 0 -14.3 -1.4z"/>
  <path d="M996.1 867.5 l-0.1 -13.5 14 0 14 0 0 13.5 0 13.5 -13.9 0 -13.9 0 -0.1 -13.5z"/>
  <path d="M29 839 l0 -14 14 0 14 0 0 -14 0 -14 14 0 14 0 0 14 0 14 -14 0 -14 0 0 14 0 14 -14 0 -14 0 0 -14z"/>
  <path d="M142.9 848.8 c-0.3 -10.7 -0.3 -12.6 -0.1 -18 l0.2 -5.8 6.4 0 6.5 0 4.3 5.8 c2.4 3.1 4.2 6.4 4.1 7.3 -0.3 1 0.9 2.6 2.6 3.9 2.7 1.8 3.1 2.8 3.1 6.6 l0 4.4 -13.5 0 -13.5 0 -0.1 -4.2z"/>
  <path d="M0 811 c0 -8.6 0.4 -14 1 -14 1.3 -0.1 23.5 -0.1 25.8 0 1.5 0 1.7 1.1 1.7 9.3 -0.1 5 -0.2 11.3 -0.3 14 l-0.2 4.7 -14 0 -14 0 0 -14z"/>
  <path d="M939 811 l0 -14 13.5 0 13.5 0 0 14 0 14 -13.5 0 -13.5 0 0 -14z"/>
  <path d="M1001 824.1 l-4.5 -0.6 -0.3 -13.2 -0.3 -13.3 14.1 0 14 0 0 14 0 14 -9.2 -0.2 c-5.1 0 -11.3 -0.4 -13.8 -0.7z"/>
  <path d="M89.3 796.2 c-1.8 -0.2 -3.3 -0.6 -3.4 -1 -0.1 -0.6 -0.8 -20.4 -0.9 -25.4 0 -1.6 -1.3 -1.8 -14 -1.8 l-14 0 0 14 0 14 -14 0 -14 0 0 -14 0 -14 14 0 14 0 0 -14 0 -14 14 0 14 0 0 14 0 14 14.5 0 14.5 0 0 -14 0 -14 -5.2 -0.2 c-2.9 -0.1 -8.7 -0.3 -12.8 -0.4 -4.1 -0.1 -8.3 -0.2 -9.3 -0.3 -1.6 -0.1 -1.7 -1.3 -1.5 -13.8 l0.3 -13.8 9.5 -0.2 c5.2 0 11.6 -0.1 14.3 -0.2 l4.7 -0.1 0 -14 0 -14 -3.7 -0.1 c-2.1 -0.1 -8.4 -0.1 -13.9 0.1 l-10.1 0.2 -0.4 -2.8 c-0.3 -1.6 -0.4 -8.1 -0.4 -14.4 l0 -11.5 14.3 -0.3 14.2 -0.3 0 -13.9 0 -14 6.5 0 6.5 0 0 14 0 14 -6.5 0 -6.5 0 0 14.5 0 14.5 6.5 0 6.5 0 0 14 0 14 -6.5 0 -6.5 0 0 14.5 0 14.5 6.4 0 6.3 0 0.5 7.5 c0.3 4.1 1 8 1.5 8.7 0.6 0.7 1.4 3.6 1.7 6.3 0.4 2.8 0.9 5.9 1.2 7 0.5 1.9 0.4 1.9 -0.9 0.3 -1.1 -1.4 -3 -1.8 -9.1 -1.8 l-7.6 0 0 14 0 14 -4.7 0.1 c-2.7 0.1 -7.5 0.2 -10.8 0.3 -3.3 0.1 -7.5 0 -9.2 -0.2z"/>
  <path d="M910.6 789.9 c-0.3 -3.4 -0.6 -9.7 -0.6 -14 l0 -7.9 -7.2 0 c-5.4 0 -7.6 0.4 -9.1 1.8 -1.9 1.6 -1.9 1.6 -1.3 -0.5 0.4 -1.2 1.4 -6.8 2.2 -12.5 0.8 -5.7 1.8 -11.8 2.1 -13.5 l0.5 -3.3 6.4 0 6.4 0 0 14 0 14 14 0 14 0 0 14 0 14 -13.4 0 -13.3 0 -0.7 -6.1z"/>
  <path d="M967 782 l0 -14 -14 0 -14 0 0 -14 0 -14 14 0 14 0 0 14 0 14 14 0 14 0 0 14 0 14 -14 0 -14 0 0 -14z"/>
  <path d="M0 754 l0 -14 14.6 0 14.7 0 -0.7 6.1 c-0.3 3.4 -0.6 9.7 -0.6 14 l0 7.9 -14 0 -14 0 0 -14z"/>
  <path d="M996 754 l0 -14 14 0 14 0 0 14 0 14 -14 0 -14 0 0 -14z"/>
  <path d="M32.3 739.2 l-3.3 -0.3 0 -13.4 c0 -15.9 -1.4 -14.7 16 -14.3 l11.5 0.3 0.3 13.8 c0.2 12.5 0.1 13.7 -1.5 13.9 -3.1 0.3 -19.6 0.3 -23 0z"/>
  <path d="M910.6 737.4 c-0.8 -2.1 -0.8 -14.9 0 -20.8 l0.7 -4.6 13.3 0 13.4 0 0 13.5 0 13.5 -13.4 0 c-11.3 0 -13.5 -0.2 -14 -1.6z"/>
  <path d="M967 725.5 l0 -13.5 14 0 14 0 0 13.5 0 13.5 -14 0 -14 0 0 -13.5z"/>
  <path d="M0 697 l0 -14 14.5 0 14.5 0 0 -14.5 0 -14.5 14 0 14 0 0 -14 0 -14 -14 0 -14.1 0 0.3 -14.2 0.3 -14.3 10.5 0.1 c5.8 0.1 12 0.2 13.8 0.3 l3.2 0.1 0 14 0 14 14 0 14 0 0 14 0 14 -14 0 -14 0 0 13.9 c0 16.4 1.4 15.1 -16.2 15.1 l-11.8 0 -0.2 8.8 c0 4.8 0 9.6 0.1 10.7 0.1 1.1 -0.1 3.5 -0.4 5.3 l-0.6 3.2 -13.9 0 -14 0 0 -14z"/>
  <path d="M57 697 l0 -14 14 0 14 0 0 14 0 14 -14 0 -14 0 0 -14z"/>
  <path d="M898 682.4 l0 -28.6 2.3 0.6 c1.2 0.3 3.9 0.6 6 0.6 l3.7 0 0 28 0 28 -6 0 -6 0 0 -28.6z"/>
  <path d="M939 697.4 l0 -13.4 8.3 -0.1 c4.5 0 10.6 -0.1 13.5 -0.2 l5.2 -0.2 0 13.8 0 13.8 -13.5 -0.2 -13.5 -0.1 0 -13.4z"/>
  <path d="M996 697.2 l0 -13.7 13.2 0.2 c7.3 0.1 13.6 0.2 14.1 0.2 0.4 0.1 0.7 6.2 0.7 13.6 l0 13.6 -14 -0.2 -14 -0.1 0 -13.6z"/>
  <path d="M939 668.5 l0 -13.5 2.8 -0.1 c6.3 -0.2 23.7 0.3 24.1 0.7 0.6 0.5 0.8 22.4 0.3 24.7 -0.4 1.5 -1.9 1.7 -13.8 1.7 l-13.4 0 0 -13.5z"/>
  <path d="M995.8 668.5 l-0.3 -13.5 14.3 0.1 14.2 0.1 0 13.4 0 13.4 -13.9 0 -14 0 -0.3 -13.5z"/>
  <path d="M0 640 l0 -14 14 0 14 0 0 14 0 14 -14 0 -14 0 0 -14z"/>
  <path d="M910.6 652.4 c-0.3 -0.8 -0.6 -7.1 -0.6 -13.9 l0 -12.4 -6.2 -0.3 -6.3 -0.3 0 -14 0 -14 6.3 -0.3 6.2 -0.3 0 -13.9 0 -14 -6.5 0 -6.5 0 0.1 -14 0 -14.1 6.5 0.3 6.4 0.2 0 13.7 0 13.6 13.6 0.6 c7.5 0.3 13.8 0.8 14 0.9 0.4 0.5 0.7 10.3 0.5 19.1 l-0.1 7.7 -14 0 -14 0 0 14.5 0 14.5 13.9 0 13.9 0 0.1 13.9 0.1 14 -13.4 0 c-11.4 0.1 -13.5 -0.1 -14 -1.5z"/>
  <path d="M967 640 l0 -14 14 0 14 0 0 14 0 14 -14 0 -14 0 0 -14z"/>
  <path d="M346.3 645.3 c-1 -0.4 -1.3 -24.6 -1.3 -116.1 0 -63.6 -0.3 -116.7 -0.6 -117.9 l-0.6 -2.3 -42.7 -0.2 -42.6 -0.3 -0.5 -24.3 c-0.5 -22.2 -0.3 -24.5 1.2 -25.3 1 -0.5 54.2 -0.8 128.3 -0.7 l126.7 0.3 -15.4 25.5 -15.3 25.5 -40.5 0.5 c-22.3 0.3 -40.6 0.7 -40.8 0.8 -0.1 0.1 -0.2 53 -0.2 117.5 l0.1 117.2 -27.3 0.2 c-15 0.1 -27.9 -0.1 -28.5 -0.4z"/>
  <path d="M520.3 645.3 l-3.1 -0.4 -0.4 -50.2 c-0.4 -54.8 -0.2 -57.5 5.1 -69.1 5.1 -11.3 20.8 -26 29.7 -27.9 1.6 -0.3 6.1 -1.4 9.9 -2.3 5.9 -1.5 14.6 -1.8 55 -2.3 45.8 -0.6 48.1 -0.7 51 -2.6 1.7 -1.1 5.2 -3.1 7.8 -4.4 6 -3 13.2 -10.9 16.4 -17.9 6.4 -13.7 4.7 -31.7 -4.1 -43.5 -3.2 -4.3 -13 -10.4 -20.3 -12.7 -6.3 -1.9 -9.2 -2 -78.2 -2 -39.5 0 -72 -0.3 -72.4 -0.6 -1.1 -1.1 15.3 -26.9 20.4 -32.2 1.3 -1.2 2.4 -3.6 2.5 -5.2 0.2 -3.3 3.1 -8.5 6.7 -11.8 l2.5 -2.3 62.3 0.4 c59.8 0.3 62.8 0.5 71.3 2.5 6 1.5 9.3 2.8 10.3 4.2 0.7 1 3.3 2.4 5.6 3.1 17.3 4.6 29.1 13.5 44.1 33.1 9.6 12.8 15.1 38 12.6 58.3 -3.9 32.3 -22.7 57.7 -53.6 72.7 -4.7 2.3 -8.8 4.7 -9.1 5.4 -0.2 0.6 7.5 12.6 17.2 26.5 9.7 14 24.4 35.1 32.7 47.1 8.3 11.9 15.7 22.7 16.3 24 2.4 4.7 3.3 8.6 2.2 9.7 -0.7 0.7 -11 1.1 -31.4 1.1 l-30.3 0 -3 -4.2 c-13.3 -19.2 -43.6 -63.6 -44.4 -65.3 -2.8 -5.2 -11.3 -18.4 -14.3 -22.2 -1.9 -2.3 -4 -5.8 -4.9 -7.8 -1.6 -3.9 -3.9 -5.4 -5.7 -3.6 -0.7 0.7 -8.4 1.1 -24.4 1.1 -15.2 0 -24.1 0.4 -25.7 1.1 l-2.5 1.2 0.4 46.6 c0.2 25.6 0.5 48.1 0.8 49.9 l0.4 3.2 -26.1 -0.2 c-14.4 0 -27.5 -0.3 -29.3 -0.5z"/>
  <path d="M86 623.7 c0 -1.2 -0.2 -6.9 -0.5 -12.7 -0.5 -13.5 -0.3 -14.2 4.3 -14 2.1 0.1 8.3 0.2 14 0.1 l10.2 -0.1 0 -14 0 -14 -13.9 0 -13.8 0 -0.6 -10.2 c-0.3 -5.7 -0.4 -11.9 -0.3 -13.8 l0.1 -3.5 14.3 -0.3 14.2 -0.3 0 14.1 0 14 6 0 6 0 0 14 0 14 -6 0 -5.9 0 -0.3 14.3 -0.3 14.2 -13.7 0.2 c-13.6 0.2 -13.8 0.2 -13.8 -2z"/>
  <path d="M939 611.3 l0 -13.3 13.5 0 13.5 0 0 3.6 c0 1.9 -0.5 4.5 -1.1 5.6 -1 1.8 -0.9 2 0.5 1.5 1.4 -0.6 1.6 -0.3 1 1.6 -0.4 1.2 -0.6 5 -0.5 8.4 l0.2 6.3 -13.5 -0.2 -13.6 -0.2 0 -13.3z"/>
  <path d="M996 611.5 l0 -13.5 14 0 14 0 0 13.5 0 13.5 -14 0 -14 0 0 -13.5z"/>
  <path d="M0 583 l0 -14.1 14.2 0.3 14.1 0.3 -0.1 11 c0 6.1 -0.1 12.2 -0.1 13.8 l-0.1 2.7 -14 0 -14 0 0 -14z"/>
  <path d="M57 583 l0 -14 -14 0 -14 0 0 -14 0 -14 14 0 14 0 0 14 0 14 14 0 14 0 0 14 0 14 -14 0 -14 0 0 -14z"/>
  <path d="M967 583.6 c0 -15.8 -1.4 -14.6 16.3 -14.6 l11.7 0 0 14 0 14 -14 0 -14 0 0 -13.4z"/>
  <path d="M939 555 l0 -14 13.5 0 13.5 0 0 4 c0 2.5 -0.5 4 -1.2 4 -1 0 -1 0.2 0 0.9 1 0.6 1 1 -0.3 2.1 -1.9 1.6 -2 3.1 0 2.4 1.8 -0.7 2 1.7 0.3 3.4 -0.9 0.9 -0.9 1.5 0 2.4 0.7 0.7 1.2 2.9 1.2 5 l0 3.8 -13.5 0 -13.5 0 0 -14z"/>
  <path d="M996 555 l0 -14 14 0 14 0 0 14 0 14 -14 0 -14 0 0 -14z"/>
  <path d="M0 526 l0 -14 14 0 c16.3 0 14.4 -2.1 14.5 16.2 l0 11.8 -14.2 0 -14.3 0 0 -14z"/>
  <path d="M57.2 526.3 l0.3 -13.8 13.8 -0.3 13.7 -0.3 0 14.1 0 14 -14 0 -14.1 0 0.3 -13.7z"/>
  <path d="M114 526 l0 -14 -13.9 0 -13.8 0 -0.7 -3.1 c-0.8 -4 -0.8 -11 0 -18.8 l0.7 -6.1 13.8 0 13.9 0 0 14 0 14 6.5 0 6.5 0 -0.2 14 -0.3 14 -6.2 0 -6.3 0 0 -14z"/>
  <path d="M911 535.4 c0 -2.7 0.6 -5.1 1.5 -6 0.8 -0.9 1.5 -2.7 1.5 -4.1 0 -1.5 -0.3 -2.4 -0.6 -2 -1.4 1.4 -3.4 -2.5 -3.4 -6.7 l0 -4.6 -6.6 0 -6.6 0 0.6 -3.1 c0.3 -1.7 0.6 -8 0.6 -14 l0 -10.9 6 0 6 0 0 14 0 14 14 0 14 0 0.1 3 c0.1 1.7 0.1 4.1 0.1 5.5 0 1.4 0 6.3 -0.1 11 l-0.1 8.5 -13.5 0 -13.5 0 0 -4.6z"/>
  <path d="M967 526 l0 -14 -14 0 -14 0 0 -14 0 -14 13.5 0 13.5 0 -0.4 4.8 c-0.2 2.6 -0.4 5.1 -0.5 5.5 -0.1 0.5 -0.5 0.5 -1.1 0.2 -1.4 -0.9 -1.2 0.5 0.5 3.5 0.8 1.4 1.4 4.4 1.5 6.7 0 7.5 -0.4 7.3 15.1 7.3 l13.9 0 0 14 0 14 -14 0 -14 0 0 -14z"/>
  <path d="M29 498 l0 -14 14 0 14 0 0 -14.5 0 -14.5 -14 0 -14 0 0 -14 0 -14 14 0 14 0 0 14 0 14 14 0 14 0 0 14 0 14 -8.7 0.2 c-4.9 0 -10.1 0 -11.7 -0.1 -1.5 -0.2 -3.9 0 -5.2 0.3 -2.4 0.6 -2.4 0.7 -2.4 14.6 l0 14 -14 0 -14 0 0 -14z"/>
  <path d="M996 498 l0 -14 14 0 14 0 0 14 0 14 -14 0 -14 0 0 -14z"/>
  <path d="M7.3 483.2 l-7.3 -0.3 0 -13.9 0 -14 14 0 14 0 0 14 c0 7.7 -0.3 14 -0.7 14 -6.2 0.4 -14.2 0.4 -20 0.2z"/>
  <path d="M119.8 483.2 l-5.8 -0.3 0 -13.9 0 -14 -14 0 c-13.8 0 -14 0 -14.1 -2.2 -0.7 -12 -0.8 -16 -0.3 -20.5 l0.5 -5.3 14 0 13.9 0 0 14 0 14 6.5 0 6.5 0 0 13.9 c0 7.7 -0.3 14.1 -0.7 14.3 -0.5 0.2 -3.4 0.2 -6.5 0z"/>
  <path d="M910 469 l0 -14 -6.5 0 -6.5 0 0 -14 0 -14 6.5 0 6.5 0 0 14 0 14 14 0 14 0 0 14 0 14 -14 0 -14 0 0 -14z"/>
  <path d="M967 469.6 l0 -13.3 10.4 -0.7 c5.7 -0.4 12 -0.4 14 0 l3.6 0.6 0 13.4 0 13.4 -14 0 -14 0 0 -13.4z"/>
  <path d="M939 441 l0 -14 13.5 0 13.5 0 0 14 0 14 -13.5 0 -13.5 0 0 -14z"/>
  <path d="M996 441 l0 -14 14 0 14 0 0 14 0 14 -14 0 -14 0 0 -14z"/>
  <path d="M1.3 426.4 c-1 -0.4 -1.3 -4.2 -1.3 -14 l0 -13.4 2.8 -0.1 c1.5 -0.1 7.8 -0.2 14 -0.3 l11.3 -0.1 -0.3 14 -0.3 14 -12.5 0.2 c-6.9 0.1 -13.1 -0.1 -13.7 -0.3z"/>
  <path d="M58.3 426.3 c-1 -0.3 -1.3 -4.2 -1.3 -14.4 l0 -13.9 -14 0 -14 0 0 -14 0 -14 14 0 14 0 0 14 0 14 4.3 0.1 c2.3 0 7.6 0.2 11.7 0.4 12.8 0.5 12 1.5 12 -14.6 l0 -13.8 -13.7 -0.3 -13.8 -0.3 0 -14 0 -14 13.7 -0.3 13.7 -0.3 0.3 -13.7 0.3 -13.7 14.3 -0.3 14.2 -0.3 0 -13.9 0 -14 -13.2 0 c-7.3 0 -13.9 -0.4 -14.6 -0.8 -0.9 -0.6 -1.1 -4.3 -1 -14.3 l0.3 -13.4 14.3 -0.3 14.2 -0.3 0 -13.9 0 -14 13 0 c7.2 0 13 0.2 13 0.3 0 0.2 -0.9 3 -2.1 6.3 -1.1 3.2 -3.4 10.9 -4.9 16.9 -2.6 9.7 -3.6 11.9 -3.1 6.3 0.2 -1.6 -0.8 -1.8 -7.8 -1.8 l-8.1 0 0 14.5 0 14.5 6.5 0 6.5 0 0 14 0 14 -6.5 0 -6.5 0 0 14 0 13.9 -14.2 0.3 -14.3 0.3 -0.3 14.3 -0.3 14.2 14.6 0 14.5 0 0 -13.9 0 -13.8 4.6 -0.7 c2.6 -0.3 5.3 -0.6 6 -0.6 1.1 0 1.4 2.9 1.4 14.5 l0 14.5 -6 0 -6 0 0 14 0 13.9 -14.2 0.3 -14.3 0.3 -0.3 14.3 -0.3 14.2 -12.7 -0.1 c-7 0 -13.3 -0.3 -13.9 -0.6z"/>
  <path d="M114.7 426.3 c-0.4 -0.3 -0.7 -6.6 -0.7 -14 l0 -13.3 3.8 0 c2 0 4.7 -0.3 6 -0.6 l2.2 -0.6 0 14.6 0 14.6 -5.3 0 c-3 0 -5.7 -0.3 -6 -0.7z"/>
  <path d="M911.1 419.8 c0.1 -3.5 -0.2 -9.6 -0.6 -13.5 l-0.8 -7.3 14.2 0 14.2 0 -0.2 13.5 -0.1 13.5 -13.5 0 -13.4 0 0.2 -6.2z"/>
  <path d="M967 412.5 l0 -13.5 14 0 14 0 0 13.5 0 13.5 -14 0 -14 0 0 -13.5z"/>
  <path d="M897.2 384.3 l0.3 -13.8 6.3 -0.3 6.2 -0.3 0 -13.9 0 -14 13.9 0 14 0 0.3 8.8 c0.2 4.8 0.2 11.1 0 14 l-0.3 5.2 -14 0 -13.9 0 0 14 0 14 -6.5 0 -6.6 0 0.3 -13.7z"/>
  <path d="M939 384 l0 -14 14 0 14 0 0 -14 0 -14 14 0 14 0 0 14 0 14 -14 0 -14 0 0 14 0 14 -14 0 -14 0 0 -14z"/>
  <path d="M996 384 l0 -14 14 0 14 0 0 14 0 14 -14 0 -14 0 0 -14z"/>
  <path d="M0 355.8 l0 -14.8 12.8 0 c7 0 13.3 0.4 14.1 0.9 1 0.7 1.4 4 1.5 13.9 0 7.2 -0.1 13.3 -0.4 13.5 -0.3 0.3 -6.7 0.7 -14.3 0.9 l-13.7 0.3 0 -14.7z"/>
  <path d="M29 327 l0 -14 14 0 14 0 0 -14 0 -14 -7.2 0 c-4 0 -10.3 -0.3 -14 -0.7 l-6.8 -0.6 0 -13.8 0 -13.9 14 0 14 0 0 -14 0 -14 14 0 14 0 0 14 0 14 -14 0 -14 0 0 14.5 0 14.5 14 0 14 0 0 14 0 14 -14 0 -14 0 0 14 0 14 -14 0 -14 0 0 -14z"/>
  <path d="M897.8 327.8 c0.3 -8.1 0.9 -13.6 1.6 -14 0.6 -0.4 3.2 -0.8 5.9 -0.8 l4.7 0 0 -13.9 0 -13.9 -6.5 -0.4 c-3.5 -0.2 -6.6 -0.6 -6.9 -0.9 -0.5 -0.5 -2.9 -19.7 -3 -24.4 l-0.1 -3 8.3 -0.3 8.2 -0.3 0 -13.9 0 -14 14 0 14 0 0 14 0 14 -14 0 -14 0 0 14.5 0 14.5 14 0 14 0 0.1 6.3 c0.2 6.9 0.1 17.3 0 20 -0.1 1.5 -1.5 1.7 -14.1 1.7 l-14 0 0 14 0 14 -6.4 0 -6.4 0 0.6 -13.2z"/>
  <path d="M939 327 l0 -14 13.5 0 13.5 0 0 14 0 14 -13.5 0 -13.5 0 0 -14z"/>
  <path d="M996 327.6 c0 -11.3 0.2 -13.5 1.6 -14 0.9 -0.3 7.2 -0.6 14 -0.6 l12.4 0 0 14 0 14 -14 0 -14 0 0 -13.4z"/>
  <path d="M0 299 l0 -14 13.9 0 13.9 0 0.7 2.7 c0.3 1.4 0.3 7.7 -0.1 14 l-0.7 11.3 -13.8 0 -13.9 0 0 -14z"/>
  <path d="M967 299 l0 -14 14 0 14 0 0 14 0 14 -14 0 -14 0 0 -14z"/>
  <path d="M1001.3 284.3 l-5.3 -0.4 0 -14 0 -13.9 14 0 14 0 0 14.5 0 14.5 -8.7 -0.2 c-4.9 -0.1 -11.2 -0.3 -14 -0.5z"/>
  <path d="M939 270 l0 -14 14 0 14 0 0 -14 0 -14 14 0 14 0 0 14 0 14 -13.9 0 c-16.4 0 -15.1 -1.4 -15.1 16.3 l0 11.7 -13.5 0 -13.5 0 0 -14z"/>
  <path d="M0 242 l0 -14 13.9 0 13.9 0 0.4 12.8 c0.2 7 0.2 13.3 0 14 -0.3 0.9 -4.1 1.2 -14.3 1.2 l-13.9 0 0 -14z"/>
  <path d="M883.6 228.3 c-1.7 -4 -2 -6.8 -1.7 -17 l0.3 -12.3 -5.6 0 c-3 0 -5.7 0.4 -6 0.8 -0.3 0.5 1.3 3.7 3.4 7.3 2.2 3.5 4 6.8 4 7.3 0 0.6 -1.9 -2.1 -4.2 -6 -4.9 -8.2 -10.4 -15.9 -16.7 -23.3 -4 -4.8 -4.5 -5.8 -4.2 -9.7 0.2 -4.1 0.1 -4.4 -2.2 -4.4 -3 0 -4 1 -2.6 2.7 2.5 2.9 -0.4 1 -5.7 -3.8 -3 -2.7 -8.3 -7 -11.7 -9.5 l-6.2 -4.6 0.4 -6.9 0.3 -6.9 -8 0 c-5.4 0 -8.3 0.4 -9.1 1.3 -0.6 0.8 -0.8 1.7 -0.4 2.1 0.4 0.4 -2.1 -0.6 -5.5 -2.1 -5.1 -2.3 -6.1 -3.1 -5.7 -4.8 0.3 -1.1 0.5 -7.1 0.5 -13.2 l0 -11.3 14 0 14 0 0 -13.9 c0 -16.1 -1 -14.8 12 -14.5 4.7 0.1 10.2 0.3 12.3 0.3 l3.7 0.1 0 14 0 14 14 0 14 0 0 14 0 14 -8.7 0 c-4.9 0 -11.2 0.3 -14 0.6 l-5.3 0.7 0 13.8 0 13.9 14.5 0 14.5 0 0 -14 0 -14 14 0 14 0 0 14 0 14 14 0 14 0 0.1 8.5 c0.1 4.7 0.2 9.2 0.2 10 0 0.8 -0.1 3.3 -0.2 5.5 l-0.1 4 -14 0 -14 0 0 14 0 14 -12.5 0 -12.4 0 0.6 3 c0.8 4.3 0.1 3.7 -2.1 -1.7z m26.4 -43.3 l0 -14 -13.9 0 -14 0 -0.3 13 c-0.2 7.2 -0.1 13.5 0 14 0.2 0.6 6.1 1 14.3 1 l13.9 0 0 -14z m-57 -57 l0 -14 -14 0 -14 0 0 14 0 14 14 0 14 0 0 -14z"/>
  <path d="M34.8 227.2 l-5.8 -0.3 0 -13.9 0 -14 -14.5 0 -14.5 0 0 -14 0 -14 14.5 0 14.5 0 0 -14.5 0 -14.5 -14.5 0 -14.5 0 0 -14 0 -14 14 0 c12.6 0 14 0.2 14.2 1.8 0 0.9 0.2 2.6 0.3 3.7 0.1 1.1 0.3 6.6 0.4 12.3 l0.1 10.2 14 0 14 0 0 -14 0 -14 -14 0 -14 0 0 -14.5 0 -14.5 -14.5 0 -14.5 0 0 -14 0 -14 14.5 0 14.5 0 0 -14 0 -14 14 0 14 0 0 14 0 14.1 14.3 -0.3 14.2 -0.3 -0.3 -13.7 -0.4 -13.8 14.6 0 14.6 0 0 14 0 14 14 0 14 0 0 14 0 14 -14 0 -14 0 0 -14 0 -14 -14.5 0 -14.5 0 0 14 0 14 3.8 0 c2 0 8.4 0.2 14.2 0.3 l10.5 0.2 0.3 14.2 0.3 14.3 13.9 0 14 0 0 14 0 14 -14 0 -14 0 0 -14 0 -13.9 -14.2 -0.3 -14.3 -0.3 -0.2 -12.5 c-0.1 -6.9 -0.2 -13.3 -0.2 -14.2 -0.1 -1.6 -1.5 -1.8 -14.1 -1.8 l-14 0 0 14.5 0 14.5 14 0 14 0 0 14 0 14 -14 0 -14 0 0 14.5 0 14.5 14 0 14 0 0 14 0 14 -14 0 -14 0 0 13.9 0 14 -8.2 0.3 c-4.6 0.2 -10.9 0.2 -14 0z m22.2 -42.2 l0 -14 -14 0 -14 0 0 14 0 14 14 0 14 0 0 -14z m0 -114 l0 -14 -14 0 -14 0 0 14 0 14 14 0 14 0 0 -14z"/>
  <path d="M85.4 226.6 c-0.3 -0.7 -0.3 -7 -0.2 -14.2 l0.3 -12.9 14.3 -0.3 14.2 -0.3 0 -13.9 0 -14 -14 0 -14 0 0 -5 c0 -2.7 0.5 -5 1 -5 0.6 0 1 -1 0.9 -2.2 0 -2.2 -0.1 -2.2 -0.9 -0.3 -0.6 1.5 -0.9 0.6 -0.9 -3.2 -0.1 -3.2 0.4 -5.3 1.2 -5.6 1 -0.4 1 -0.6 0 -0.6 -2.1 -0.2 -1.6 -6.1 0.5 -6.2 5.4 -0.4 14.8 0.4 15.3 1.3 0.4 0.6 0.8 0.5 1.1 -0.3 0.2 -0.7 2.2 -1.3 4.9 -1.3 l4.4 -0.1 0.3 14.3 0.3 14.2 13.8 0 c10.6 0 14 -0.3 14.4 -1.3 0.3 -0.8 0.4 -7.2 0.4 -14.3 l-0.2 -12.9 14 0.1 14 0.1 0.1 9.9 c0.1 5.4 -0.1 11.8 -0.4 14.2 l-0.4 4.2 -13.9 0 -13.9 0 0 14 0 14 -14 0 -14 0 0 14 c0 12.6 -0.2 14 -1.7 14.1 -19.1 0.6 -26.5 0.5 -26.9 -0.5z"/>
  <path d="M939 213.5 l0 -13.5 13.4 0 13.5 0 0.3 11.8 c0.2 6.4 0.1 12.5 -0.1 13.5 -0.3 1.5 -1.8 1.7 -13.7 1.7 l-13.4 0 0 -13.5z"/>
  <path d="M996 213.5 l0 -13.5 14 0 14 0 0 13.5 0 13.5 -14 0 -14 0 0 -13.5z"/>
  <path d="M142.8 210.6 l-0.3 -10.6 2.8 -0.6 c2.5 -0.5 9.7 0.2 9.7 1 0 0.2 -2.7 4.9 -5.9 10.6 l-6 10.2 -0.3 -10.6z"/>
  <path d="M967 185 l0 -14 14 0 14 0 0 14 0 14 -14 0 -14 0 0 -14z"/>
  <path d="M170.8 175.5 c0.4 -4.5 0.4 -4.5 4.3 -4.5 2.1 0 3.9 0.1 3.9 0.3 0 0.2 -1.9 2.2 -4.3 4.5 l-4.2 4.1 0.3 -4.4z"/>
  <path d="M939 157 l0 -14 13.4 0 13.5 0 0.6 4.3 c0.3 2.3 0.5 8.5 0.3 13.7 l-0.3 9.5 -13.7 0.3 -13.8 0.3 0 -14.1z"/>
  <path d="M998.3 170.3 c-2.3 -0.4 -2.3 -0.7 -2.3 -13.9 l0 -13.4 6.3 0 c3.5 0 9.8 -0.3 14 -0.6 l7.7 -0.7 0 14.7 0 14.6 -11.7 -0.1 c-6.5 -0.1 -12.8 -0.4 -14 -0.6z"/>
  <path d="M199.2 148.8 c0.2 -4.3 0.7 -6.3 1.6 -6.2 0.6 0.1 5.4 0.2 10.5 0.3 8.9 0.2 9.1 0.2 6.9 1.9 -1.3 0.9 -3.8 2.9 -5.7 4.5 -1.8 1.5 -4.1 2.7 -5.1 2.7 -1.1 0 -2.8 0.7 -3.8 1.5 -3.9 2.9 -4.7 2 -4.4 -4.7z"/>
  <path d="M171 128 l0 -14 -13.9 0 c-10.2 0 -14 -0.3 -14.3 -1.2 -0.2 -0.7 -0.4 -7.1 -0.3 -14.3 l0 -13 14 0 14 0 0.3 14.3 0.3 14.2 13.9 0 14 0 0 -13.9 0 -14 4.3 -0.6 c2.3 -0.4 8.5 -0.5 13.7 -0.3 l9.5 0.3 0.5 3.5 c0.3 1.9 0.4 8.3 0.2 14.2 l-0.3 10.8 -14 0 -13.9 0 0 14 0 14 -14 0 -14 0 0 -14z"/>
  <path d="M910 128 l0 -14 -14 0 -14 0 0 -14 0 -14 14 0 14 0 0 14 0 14 14 0 14 0 0 14 0 14 -14 0 -14 0 0 -14z"/>
  <path d="M967 128 l0 -14 -14 0 -14 0 0 -14 0 -14.1 13.8 0.3 13.7 0.3 0.3 13.8 0.3 13.7 13.9 0 14 0 0 14 0 14 -14 0 -14 0 0 -14z"/>
  <path d="M227.8 127.1 l0.3 -13.1 14 0 13.9 0 0 -14.5 0 -14.5 -14.2 0 -14.3 0 0.3 -14 0.3 -14 14 0 14 0 -0.3 -14.2 -0.3 -14.3 -13.5 -0.3 c-7.4 -0.2 -13.6 -0.4 -13.7 -0.6 -0.3 -0.2 -0.6 -19.8 -0.4 -24.8 l0.1 -2.8 14 0 14 0 0 14.6 0 14.6 8.8 -0.3 c4.8 -0.1 11.1 -0.2 14 -0.1 l5.2 0.2 0 14 0 14 -14 0 -14 0 0 13.9 0 13.8 9.2 0.7 c5 0.3 11.3 0.6 14 0.6 l4.9 0 -0.3 13.8 -0.3 13.7 -13.7 0.3 -13.8 0.3 0 7.8 c0 5.4 0.4 8.1 1.3 8.4 0.7 0.2 0.1 0.9 -1.3 1.4 -3.3 1.4 -22.8 7.3 -26 8 l-2.5 0.5 0.3 -13.1z"/>
  <path d="M760.5 130.4 c-3.8 -0.7 -10.1 -1.6 -14 -2.1 -3.8 -0.4 -6.9 -1.1 -6.7 -1.5 0.1 -0.5 0.2 -3.5 0.2 -6.8 l0 -6 14 0 14 0 0 -14 0 -14 -14 0 -14 0 0 4.8 c0 2.7 -0.3 9 -0.6 14 l-0.7 9.2 -13.8 0 -13.9 0 0 6.5 0 6.5 -14.2 0 -14.3 0 0.3 -6.5 0.4 -6.5 13.9 0 14 0 -0.3 -14.2 -0.3 -14.3 -13.7 -0.3 -13.8 -0.3 0 -13.9 0 -14 -13.9 0 -13.8 0 -0.7 7.7 c-0.3 4.2 -0.6 10.5 -0.6 14 l0 6.3 5.3 0.2 c2.8 0 9.1 0 14 -0.1 8.4 -0.2 8.7 -0.1 8.7 2.1 0 1.3 0.1 7.7 0.2 14.3 l0.2 12 -13.7 0 -13.8 0 -0.4 -13 c-0.2 -7.1 -0.4 -13.6 -0.4 -14.2 -0.1 -1 -3.6 -1.3 -14.1 -1.3 l-14 0 0 -14 0 -14 -14.5 0 -14.5 0 0 14 0 14 3.8 0.1 c2 0 8.4 0.2 14.2 0.2 l10.5 0.2 0 14 0 14 -14.2 0.3 -14.3 0.3 0 6.4 0 6.5 -14 0 -14 0 0 -6.5 0 -6.5 -13.9 0 c-10.2 0 -14 0.3 -14.3 1.3 -0.3 0.6 -0.4 3.6 -0.4 6.4 l0.1 5.3 -14.2 0 -14.3 0 0 -6.5 0 -6.5 -14.6 0 -14.6 0 0.3 3.3 c0.1 1.7 0.1 4.7 0 6.5 l-0.1 3.2 -14 0 -14 0 0 -6.5 0 -6.5 -14 0 -14 0 0 6.5 0 6.5 -14.6 0 c-12.9 0 -14.5 -0.2 -14 -1.6 0.3 -0.9 0.6 -3.8 0.6 -6.5 l0 -4.9 14 0 14 0 0 -14 0 -14 14 0 14 0 0 14 0 14 14 0 14 0 0 -13.9 0 -13.8 -3.7 -0.7 c-2.1 -0.3 -8.2 -0.6 -13.5 -0.6 l-9.8 0 0 -7.2 c0 -4 -0.3 -10.3 -0.7 -14 l-0.6 -6.8 -13.8 0 -13.9 0 0 -14 0 -14 -14 0 -14 0 -0.1 4.5 c-0.1 2.5 -0.3 5 -0.4 5.5 -0.1 0.6 -0.3 4.8 -0.4 9.5 l-0.1 8.5 -14 0 -14 0 0 -14 0 -14 -14.5 0 -14.5 0 0 14 0 14 -14 0 -14 0 0 14 0 14 -14 0 -14 0 0 -14 0 -14 14 0 14 0 0 -13.9 0 -13.8 3.8 -0.7 c2 -0.3 8.3 -0.6 14 -0.6 l10.2 0 0 -14 0 -14 14.5 0 14.5 0 0 14 0 14 14 0 14 0 0 -14 0 -14 14.5 0 14.5 0 0 14 0 14 14 0 14 0 0 -14 0 -14 14.5 0 14.5 0 0 14 0 14 14 0 14 0 0 -14 0 -14 14 0 14 0 0.1 3.3 c0.1 1.7 0 3.7 -0.1 4.2 -0.1 0.6 0.1 5.4 0.5 10.8 l0.7 9.7 13.9 0 13.9 0 0 -14 0 -14 14 0 14 0 0 14 0 14 14.5 0 14.5 0 0 -14 0 -14 14 0 14 0 0 5.8 c0 3.1 0.3 9.4 0.7 14 l0.6 8.2 13.3 0 13.4 0 0 -14 0 -14 14.5 0 14.5 0 0 14 0 14 14 0 14 0 0 -14 0 -14 14.5 0 14.5 0 0 14 0 14 14 0 14 0 0 -7.9 c0 -4.3 0.3 -10.6 0.6 -14 l0.7 -6.1 13.8 0 13.9 0 0 14 0 14 14 0 14 0 0 -14 0 -14 14.5 0 14.5 0 0 14 0 14 14 0 14 0 0 -14 0 -14 14.3 0 14.2 0 -0.2 6.3 c-0.1 3.4 -0.2 9.7 -0.2 14 l-0.1 7.7 -7.2 0 c-4 0 -10.3 0.3 -14 0.7 l-6.8 0.6 0 13.8 0 13.9 13.9 0 13.9 0 0.4 5.3 c0.2 2.8 0.2 9.1 0 14 l-0.4 8.8 -13.7 -0.3 -13.6 -0.3 -0.3 -13.7 -0.3 -13.8 -13.9 0 -14 0 0 -14 0 -14 -14.5 0 -14.5 0 0 14 0 14 -14 0 -14 0 0 -13.9 0 -13.9 -8.1 -0.4 c-4.5 -0.2 -10.8 -0.1 -14 0 -6.8 0.4 -6.6 -0.3 -6.1 16.9 l0.3 11.2 13.7 0.3 13.7 0.3 0.3 13.7 0.3 13.6 -9.4 0.7 c-5.2 0.4 -11.5 0.6 -14 0.4 -4.3 -0.4 -4.6 -0.3 -5.1 2.5 -0.3 1.6 -0.6 8 -0.6 14.2 l0 11.4 -14 0 -13.9 0 -0.3 8.8 -0.3 8.7 -7 -1.1z m-219.5 -30.4 l0 -14.1 7.5 0.2 c4.1 0.1 7.5 0.6 7.5 1.1 0 0.5 1.4 0.1 3.1 -0.7 1.6 -0.9 4.5 -1.5 6.2 -1.3 l3.2 0.3 0.3 14.3 0.3 14.2 13.9 0 14 0 0 -14.5 0 -14.5 -14 0 -14 0 0 -14 0 -14 14 0 14 0 0 -14 0 -14 -14 0 -14 0 0 14 0 14 -14 0 c-11.8 0 -14 -0.2 -14.1 -1.5 0 -0.8 0 -6.3 0 -12.2 0 -6 -0.3 -11.6 -0.5 -12.5 -0.5 -1.6 -2.1 -1.8 -14.5 -1.8 l-13.9 0 0 14 0 14 -14 0 -14 0 0 14 0 13.9 13.8 0.3 13.7 0.3 0.3 14.3 0.3 14.2 14.4 0 14.5 0 0 -14z m198 -29 l0 -14 -14 0 -14 0 0 -14 0 -14 -14 0 -14 0 0 14 0 14 14 0 14 0 0 14 0 14 14 0 14 0 0 -14z m57 0 l0 -14 -14 0 -14 0 0 -14 0 -14 -14 0 -14 0 0 14 0 14 14 0 14 0 0 14 0 14 14 0 14 0 0 -14z m-313 -28 l0 -14 -14 0 -14 0 0 14 0 14 14 0 14 0 0 -14z m171 0 l0 -14 -14 0 -14 0 0 14 0 14 14 0 14 0 0 -14z"/>
  <path d="M512 71 l0 -14.1 14.1 0.3 14.2 0.3 -0.1 11.5 c0 6.3 -0.1 12.5 -0.1 13.8 -0.1 2.2 -0.3 2.2 -14.1 2.2 l-14 0 0 -14z"/>
  <path d="M284.4 125.4 c0.3 -0.9 0.6 -3.8 0.6 -6.5 l0 -4.9 14 0 14 0 0 -14 0 -14 14 0 14 0 0 14 0 14 -14 0 -14 0 0 6.5 0 6.5 -14.6 0 c-12.9 0 -14.5 -0.2 -14 -1.6z"/>
  <path d="M341.7 121.3 c0.1 -3.2 0.2 -6.1 0.3 -6.5 0 -0.5 6.3 -0.8 14 -0.8 l14 0 0 -14 0 -14 14 0 14 0 0 14 0 14 -14 0 -14 0 -0.1 4.8 c-0.1 2.6 -0.1 5.5 0 6.5 0.2 1.5 -1.1 1.7 -14.1 1.7 l-14.3 0 0.2 -5.7z"/>
  <path d="M626 120.5 l0 -6.5 14 0 14 0 0 6.5 0 6.5 -14 0 -14 0 0 -6.5z"/>
  <path d="M996 100 l0 -14 14 0 14 0 0 14 0 14 -14 0 -14 0 0 -14z"/>
  <path d="M171 71 l0 -14 14 0 14 0 0 -14 0 -14 14.3 0 14.2 0 -0.3 14 -0.3 14 -14 0 -13.9 0 0 14 0 14 -14 0 -14 0 0 -14z"/>
  <path d="M342 71 l0 -14 9.8 0 c5.3 0 11.4 0.3 13.5 0.6 l3.7 0.7 0 13.3 0 13.4 -13.5 0 -13.5 0 0 -14z"/>
  <path d="M399 71.5 l0 -13.4 13.4 0 13.3 -0.1 0.7 4.7 c0.8 5.8 0.8 13.7 0 18.6 l-0.7 3.7 -13.3 0 -13.4 0 0 -13.5z"/>
  <path d="M853.4 71.3 l0.1 -13.8 13.8 -0.3 13.7 -0.3 0 14.1 0 14 -13.9 0 -13.9 0 0.2 -13.7z"/>
  <path d="M967 71 l0 -14 14 0 14 0 0 14 0 14 -14 0 -14 0 0 -14z"/>
  <path d="M142.9 56.8 c-0.1 -0.2 -0.3 -6.5 -0.5 -14 l-0.4 -13.8 14.6 0 14.5 0 -0.1 6.8 c-0.1 3.7 -0.4 10 -0.7 14 l-0.6 7.2 -13.3 0 c-7.4 0 -13.5 -0.1 -13.5 -0.2z"/>
  <path d="M939 43 l0 -14 13.4 0 13.5 0 0.3 13 c0.2 7.2 0.2 13.5 0 14 -0.2 0.6 -5.9 1 -13.8 1 l-13.4 0 0 -14z"/>
  <path d="M996 43 l0 -14 14 0 14 0 0 14 0 14 -14 0 -14 0 0 -14z"/>
  <path d="M3.3 28.3 l-3.3 -0.4 0 -14 0 -13.9 14.5 0 14.5 0 0 14 0 14 -9.9 0 c-5.5 0 -10.5 0.2 -11.3 0.3 -0.7 0.2 -2.8 0.2 -4.5 0z"/>
  <path d="M57.4 28.1 c-0.2 -0.2 -0.4 -6.7 -0.4 -14.3 l0 -13.8 14 0 14 0 0 14 0 14 -7.7 0.1 c-4.3 0 -10.4 0.1 -13.6 0.2 -3.2 0.1 -6.1 0 -6.3 -0.2z"/>
  <path d="M288.3 28.2 l-3.3 -0.3 0 -14 0 -13.9 14 0 14 0 0 14 0 14 -7.2 0.1 c-4 0.1 -8.9 0.2 -10.8 0.3 -1.9 0.1 -5 0 -6.7 -0.2z"/>
  <path d="M114 14 l0 -14 14 0 14 0 0 14 0 14 -14 0 -14 0 0 -14z"/>
  <path d="M171 14 l0 -14 14 0 14 0 0 14 0 14 -14 0 -14 0 0 -14z"/>
  <path d="M967 14 l0 -14 14 0 14 0 0 14 0 14 -14 0 -14 0 0 -14z"/>
 </g>
</svg>