<?xml version="1.0" encoding="UTF-8"?>
<svg id="Layer_1" data-name="Layer 1" xmlns="http://www.w3.org/2000/svg" width="512" height="512" xmlns:xlink="http://www.w3.org/1999/xlink" viewBox="0 0 512 512">
  <defs>
    <style>
      .cls-1 {
        fill: #fff;
      }

      .cls-2 {
        fill: url(#linear-gradient);
      }
    </style>
    <linearGradient id="linear-gradient" x1="40.87" y1="490.64" x2="468.88" y2="23.82" gradientUnits="userSpaceOnUse">
      <stop offset="0" stop-color="#081e67"/>
      <stop offset=".32" stop-color="#072c7c"/>
      <stop offset="1" stop-color="#0084c4"/>
    </linearGradient>
  </defs>
  <path class="cls-2" d="M408.77.5H103.23C46.5.5.5,44.67.5,99.15v313.7c0,54.48,45.99,98.65,102.73,98.65h305.54c56.74,0,102.73-44.17,102.73-98.65V99.15c0-54.48-45.99-98.65-102.73-98.65Z"/>
  <g>
    <polygon class="cls-1" points="136.97 365.5 181.84 365.5 181.84 187.36 241.13 187.36 265.25 146.51 181.84 146.51 136.97 146.51 70.96 146.51 70.96 187.36 136.97 187.36 136.97 365.5"/>
    <path class="cls-1" d="M305.72,187.36h62.19c13.69,3.18,23.89,15.46,23.89,30.11,0,17.07-13.84,30.93-30.93,30.93h-65.83c-21.79,0-39.45,17.66-39.45,39.45h0v77h44.86v-77h41.8l53.09,77.01h49.7l-56.01-81.23-1.15-1.66c.39-.11.76-.23,1.15-.35,28.26-8.64,48.8-34.95,48.8-66.03,0-11.64-2.88-22.62-7.97-32.24-11.58-21.91-34.58-36.83-61.09-36.83h-87.67l-24.12,40.85h48.73Z"/>
  </g>
</svg>
